<svg xmlns="http://www.w3.org/2000/svg" width="39.208" height="64"><g data-name="Group 98"><g data-name="Group 81"><g data-name="Logo"><g data-name="Group 14"><path data-name="Path 32" d="M1.834 26.342c3.227-.011 26.079-.023 29.306.006.6.005.8-.131.793-.762a1.764 1.764 0 0 1 1.775-1.778q2.026-.051 4.053.011a.814.814 0 0 1 .623.463c.061.394-.285.513-.649.511h-3.752a1 1 0 0 0-1.088.8h4.795c.349 0 .694.054.708.475.016.467-.353.522-.721.523h-4.235c-.3 0-.563-.008-.566.422s.25.434.556.433h4.356c.341 0 .67.137.591.5a.818.818 0 0 1-.617.471c-1.37.044-2.742.024-4.113.024h-.656c.009.645.282.9.959.911 1.109.013 2.219 0 3.328 0 .161 0 .323.005.484 0 .34-.009.677.1.623.468a.828.828 0 0 1-.6.49 14.511 14.511 0 0 1-1.752.025c-.726 0-1.453.014-2.178 0a1.822 1.822 0 0 1-1.941-1.991c.013-.58-.18-.7-.72-.7-3.207.023-26.154.227-29.36.227" fill="#fff"/></g><g data-name="Group 15"><path data-name="Path 33" d="M2.273 43.183c0 1.529-.067 3.076.06 4.6a17.67 17.67 0 0 0 35.281-1.488c.012-3.062 0-6.125 0-9.188a.74.74 0 0 0-1.48 0v8.257a20.064 20.064 0 0 1-.454 4.8 16.107 16.107 0 0 1-3.188 6.413 16.2 16.2 0 0 1-28.629-8.291 44.518 44.518 0 0 1-.111-5.107.74.74 0 0 0-1.48 0Z" fill="#fff"/></g><g data-name="Group 16"><path data-name="Path 34" d="M37.564 37.658c-3.227.01-26.079.022-29.3-.006-.6-.005-.8.131-.793.763a1.765 1.765 0 0 1-1.778 1.775q-2.025.051-4.052-.011a.814.814 0 0 1-.623-.463c-.061-.394.284-.513.649-.512h3.751a1 1 0 0 0 1.088-.8H1.711c-.349 0-.694-.055-.708-.475-.015-.467.353-.522.721-.523h4.235c.3 0 .564.008.566-.421s-.251-.435-.556-.434q-1.937.005-3.872 0h-.484c-.341 0-.671-.137-.591-.5a.82.82 0 0 1 .617-.471c1.37-.044 2.742-.023 4.113-.024h.655c-.009-.645-.282-.9-.958-.912-1.109-.014-2.219 0-3.328 0-.162 0-.323-.005-.484 0-.34.009-.677-.105-.622-.468a.828.828 0 0 1 .6-.49 14.5 14.5 0 0 1 1.752-.025c.726 0 1.452-.015 2.178 0a1.822 1.822 0 0 1 1.941 1.991c-.013.579.18.7.72.7 3.206-.023 26.153-.227 29.359-.227" fill="#fff"/></g></g><g data-name="Group 80"><g data-name="Group 13"><path data-name="Path 31" d="M3.265 26.888v-8.256a20.091 20.091 0 0 1 .453-4.8 16.117 16.117 0 0 1 3.188-6.414 16.2 16.2 0 0 1 28.629 8.292 44.539 44.539 0 0 1 .111 5.107.74.74 0 0 0 1.48 0c0-1.528.068-3.077-.06-4.6a17.67 17.67 0 0 0-35.281 1.488c-.013 3.062 0 6.125 0 9.187a.74.74 0 0 0 1.48 0Z" fill="#fff"/></g><g data-name="Group 78"><path data-name="Path 35" d="m33.515 19.466 2.344 2.344a.583.583 0 0 0 .812 0l2.367-2.368a.574.574 0 0 0-.811-.811l-2.368 2.368h.812l-2.345-2.345a.574.574 0 0 0-.811.812Z" fill="#fff"/></g></g></g><g data-name="Group 79"><path data-name="Path 36" d="m5.693 44.428-2.345-2.345a.583.583 0 0 0-.811 0L.169 44.451a.574.574 0 0 0 .811.811l2.368-2.367h-.811l2.345 2.344a.574.574 0 0 0 .811-.811Z" fill="#fff"/></g></g></svg>